<?xml version="1.0" encoding="UTF-8"?>
<svg id="Layer_1" data-name="Layer 1" xmlns="http://www.w3.org/2000/svg" viewBox="0 0 398.03 115.45">
  <defs>
    <style>
      .cls-1 {
        font-family: MaturaMTScriptCapitals, 'Matura MT Script Capitals';
        font-size: 78.91px;
        stroke: #ed1c24;
        stroke-miterlimit: 10;
      }

      .cls-1, .cls-2 {
        fill: #e41e26;
      }

      .cls-3 {
        fill: #fff;
      }

      .cls-3, .cls-2 {
        stroke-width: 0px;
      }
    </style>
  </defs>
  <path class="cls-2" d="m1,62.23h29.74c.31,0,1.34-.02,1.52.23l8.27,12.09c2.09,2.77.12,6.73-3.35,6.73H1c-.55,0-1-.45-1-1v-17.05c0-.55.45-1,1-1Z"/>
  <path class="cls-2" d="m63.78,63.26c2.22,3.12,1.33,7.47-1.94,9.47l-15.83,9.67,1.14-2.16c.61-1.08.64-1.8.62-3.04l-.02-.84c0-.15-.21-1.36-.29-1.49L6.91,18.31c-1.68-2.28-.56-7.17,1.87-8.61L25.12,0l-1.73,3.16c-.17.32-.28.67-.32,1.03l-.08.87c-.05.49.08.97.36,1.37l40.43,56.84Z"/>
  <text class="cls-1" transform="translate(75.45 77.73)"><tspan x="0" y="0">afoorimo </tspan></text>
  <path class="cls-2" d="m69.29,19.29h-29.74c-.31,0-1.34.02-1.52-.23l-8.27-12.09c-2.09-2.77-.12-6.73,3.35-6.73h36.18c.55,0,1,.45,1,1v17.05c0,.55-.45,1-1,1Z"/>
  <rect class="cls-3" x="65.04" y="1.33" width="2.56" height="2.56"/>
  <rect class="cls-3" x="59.56" y="1.33" width="2.56" height="2.56"/>
  <rect class="cls-3" x="54.24" y="1.33" width="2.56" height="2.56"/>
  <rect class="cls-3" x="49.04" y="1.33" width="2.56" height="2.56"/>
  <rect class="cls-3" x="43.76" y="1.33" width="2.56" height="2.56"/>
  <rect class="cls-3" x="38.57" y="1.33" width="2.56" height="2.56"/>
  <rect class="cls-3" x="33.05" y="1.33" width="2.56" height="2.56"/>
  <rect class="cls-3" x="38.57" y="15.75" width="2.56" height="2.56"/>
  <rect class="cls-3" x="43.76" y="15.75" width="2.56" height="2.56"/>
  <rect class="cls-3" x="49.04" y="15.75" width="2.56" height="2.56"/>
  <rect class="cls-3" x="54.24" y="15.75" width="2.56" height="2.56"/>
  <rect class="cls-3" x="59.56" y="15.75" width="2.56" height="2.56"/>
  <rect class="cls-3" x="65.04" y="15.75" width="2.56" height="2.56"/>
  <rect class="cls-3" x="18.13" y="77.68" width="2.56" height="2.56" transform="translate(38.83 157.92) rotate(-180)"/>
  <rect class="cls-3" x="2.13" y="77.68" width="2.56" height="2.56" transform="translate(6.83 157.92) rotate(-180)"/>
  <rect class="cls-3" x="7.62" y="77.68" width="2.56" height="2.56" transform="translate(17.79 157.92) rotate(-180)"/>
  <rect class="cls-3" x="12.93" y="77.68" width="2.56" height="2.56" transform="translate(28.43 157.92) rotate(180)"/>
  <rect class="cls-3" x="23.41" y="77.68" width="2.56" height="2.56" transform="translate(49.38 157.92) rotate(-180)"/>
  <rect class="cls-3" x="28.61" y="77.68" width="2.56" height="2.56" transform="translate(59.78 157.92) rotate(-180)"/>
  <rect class="cls-3" x="34.13" y="77.68" width="2.56" height="2.56" transform="translate(70.81 157.92) rotate(180)"/>
  <rect class="cls-3" x="28.61" y="63.26" width="2.56" height="2.56" transform="translate(59.78 129.07) rotate(180)"/>
  <rect class="cls-3" x="23.41" y="63.26" width="2.56" height="2.56" transform="translate(49.38 129.08) rotate(-180)"/>
  <rect class="cls-3" x="18.13" y="63.26" width="2.56" height="2.56" transform="translate(38.83 129.08) rotate(180)"/>
  <rect class="cls-3" x="12.93" y="63.26" width="2.56" height="2.56" transform="translate(28.43 129.08) rotate(180)"/>
  <rect class="cls-3" x="7.62" y="63.26" width="2.56" height="2.56" transform="translate(17.79 129.08) rotate(180)"/>
  <rect class="cls-3" x="2.13" y="63.26" width="2.56" height="2.56" transform="translate(6.83 129.08) rotate(180)"/>
  <g>
    <rect class="cls-3" x="37.87" y="57.08" width="2.56" height="2.56" transform="translate(14.11 124.01) rotate(-125.26)"/>
    <rect class="cls-3" x="28.63" y="44.01" width="2.56" height="2.56" transform="translate(10.2 95.87) rotate(-125.26)"/>
    <rect class="cls-3" x="31.8" y="48.49" width="2.56" height="2.56" transform="translate(11.54 105.51) rotate(-125.26)"/>
    <rect class="cls-3" x="34.87" y="52.83" width="2.56" height="2.56" transform="translate(12.84 114.87) rotate(-125.26)"/>
    <rect class="cls-3" x="40.92" y="61.39" width="2.56" height="2.56" transform="translate(15.39 133.3) rotate(-125.26)"/>
    <rect class="cls-3" x="43.92" y="65.63" width="2.56" height="2.56" transform="translate(16.66 142.44) rotate(-125.26)"/>
    <rect class="cls-3" x="47.1" y="70.13" width="2.56" height="2.56" transform="translate(18.01 152.15) rotate(-125.26)"/>
    <rect class="cls-3" x="55.35" y="57.54" width="2.56" height="2.56" transform="translate(41.3 139.03) rotate(-125.26)"/>
    <rect class="cls-3" x="52.28" y="53.35" width="2.56" height="2.56" transform="translate(39.88 129.9) rotate(-125.26)"/>
    <rect class="cls-3" x="49.31" y="48.99" width="2.56" height="2.56" transform="translate(38.74 120.6) rotate(-125.26)"/>
    <rect class="cls-3" x="46.3" y="44.75" width="2.56" height="2.56" transform="translate(37.48 111.45) rotate(-125.26)"/>
    <rect class="cls-3" x="43.23" y="40.4" width="2.56" height="2.56" transform="translate(36.18 102.09) rotate(-125.26)"/>
    <rect class="cls-3" x="40.07" y="35.93" width="2.56" height="2.56" transform="translate(34.84 92.45) rotate(-125.26)"/>
    <rect class="cls-3" x="58.61" y="62" width="2.56" height="2.56" transform="translate(44.22 148.98) rotate(-126.21)"/>
    <rect class="cls-3" x="19.49" y="31.47" width="2.56" height="2.56" transform="translate(6.62 68.86) rotate(-126.21)"/>
    <rect class="cls-3" x="10.04" y="18.56" width="2.56" height="2.56" transform="translate(2 40.69) rotate(-126.21)"/>
    <rect class="cls-3" x="13.28" y="22.98" width="2.56" height="2.56" transform="translate(3.58 50.34) rotate(-126.21)"/>
    <rect class="cls-3" x="16.42" y="27.27" width="2.56" height="2.56" transform="translate(5.12 59.71) rotate(-126.21)"/>
    <rect class="cls-3" x="22.61" y="35.73" width="2.56" height="2.56" transform="translate(8.14 78.14) rotate(-126.21)"/>
    <rect class="cls-3" x="25.68" y="39.92" width="2.56" height="2.56" transform="translate(9.64 87.29) rotate(-126.21)"/>
    <rect class="cls-3" x="37.02" y="31.62" width="2.56" height="2.56" transform="translate(34.38 83.24) rotate(-126.21)"/>
    <rect class="cls-3" x="33.95" y="27.42" width="2.56" height="2.56" transform="translate(32.88 74.09) rotate(-126.21)"/>
    <rect class="cls-3" x="30.83" y="23.17" width="2.56" height="2.56" transform="translate(31.36 64.8) rotate(-126.21)"/>
    <rect class="cls-3" x="27.76" y="18.97" width="2.56" height="2.56" transform="translate(29.86 55.65) rotate(-126.21)"/>
    <rect class="cls-3" x="24.62" y="14.68" width="2.56" height="2.56" transform="translate(28.32 46.29) rotate(-126.21)"/>
    <rect class="cls-3" x="21.38" y="10.26" width="2.56" height="2.56" transform="translate(26.74 36.64) rotate(-126.21)"/>
  </g>
</svg>